<svg width="33" height="33" viewBox="0 0 33 33" fill="none" xmlns="http://www.w3.org/2000/svg">
<rect y="0.446777" width="29.4857" height="29.4857" rx="3.68571" fill="#6AAA64"/>
<path d="M18.4283 13.3468V5.97534H11.0569V11.5039H5.52832V22.5611H23.9569V13.3468H18.4283ZM12.8997 7.8182H16.5855V20.7182H12.8997V7.8182ZM7.37118 13.3468H11.0569V20.7182H7.37118V13.3468ZM22.114 20.7182H18.4283V15.1896H22.114V20.7182Z" fill="white"/>
<path d="M31.6823 26.542L31.9288 26.2468L31.6823 25.9515L30.5779 24.6286L30.7321 22.8752L30.767 22.4788L30.3798 22.3867L28.7613 22.0015L27.9102 20.4919L27.7036 20.1254L27.3199 20.298L25.8001 20.9817L24.2802 20.298L23.897 20.1257L23.6902 20.4914L22.8396 21.9955L21.2215 22.3758L20.8331 22.4671L20.868 22.8646L21.0223 24.6237L19.9173 25.9521L19.6718 26.2473L19.9178 26.542L21.0222 27.865L20.868 29.6237L20.8332 30.02L21.2203 30.1122L22.8392 30.4974L23.6902 32.0021L23.8976 32.3688L24.2813 32.195L25.8007 31.5068L27.3199 32.1902L27.7031 32.3626L27.9099 31.9969L28.7609 30.4921L30.3798 30.1069L30.767 30.0148L30.7321 29.6183L30.5779 27.865L31.6823 26.542ZM23.6734 26.6146L24.5062 27.4909L24.8399 27.8421L25.1739 27.491L27.7809 24.7506L27.8876 24.8624L24.8401 28.0638L23.5667 26.7263L23.6734 26.6146Z" fill="black" stroke="white" stroke-width="0.921429"/>
</svg>